# xmcd
#
# Track frame offsets:
#	150
#	16917
#	35976
#	50062
#	67227
#	84022
#	100168
#	113005
#	135112
#	156531
#	172173
#	188936
#	208013
#	233882
#	251556
#
# Disc length: 3644 seconds
#
# Revision: 0
# Processed by: cddbd v1.5.1PL2 Copyright (c) Steve Scherf et al.
# Submitted via: EasyCDDAExtractor 9.1.0.1
#
DISCID=d20e3a0f
DTITLE=Various Artist - Viva Brasil!
DYEAR=1900
DGENRE=Váriada
TTITLE0=Só Pra Contrariar - Pecado Capital
TTITLE1=Gal Costa and Herbert Vianna - Laterna Dos Afogados
TTITLE2=Só No Sapatinho - Só No Sapatinho
TTITLE3=Vanessa Rangel - Palpite
TTITLE4=Fafá De Belém - Vermelho
TTITLE5=Biquini Cavadão - Janaína
TTITLE6=Chico Buarque - Paratodos
TTITLE7=Leandro - Catedral
TTITLE8=Fábio Jr. - Alma Gêmea
TTITLE9=Lulu Santos - Assim Caminha A Humenidade
TTITLE10=Chiclete Com Banana - Delicia Pra Tí
TTITLE11=Pato Fu - Antes Que Seja Tarde
TTITLE12=Jamelão - O Século Do Samba
TTITLE13=Leandro and Leonardo - Um Sonhador
TTITLE14=Zé Ramalho - Admirável Gado Novo
EXTD=
EXTT0=
EXTT1=
EXTT2=
EXTT3=
EXTT4=
EXTT5=
EXTT6=
EXTT7=
EXTT8=
EXTT9=
EXTT10=
EXTT11=
EXTT12=
EXTT13=
EXTT14=
PLAYORDER=
